<svg width="435" height="71" viewBox="0 0 435 71" fill="none" xmlns="http://www.w3.org/2000/svg">
<path d="M6.36999 58.92V52.62H-1.20401e-05V13.91H7.06999V51.92H25.41V45.55H32.55V52.62H26.11V58.92H6.36999ZM45.2665 58.92V52.62H38.8965V32.95H45.2665V26.58H65.0065V32.95H71.4465V52.62H65.0065V58.92H45.2665ZM45.9665 51.92H64.3065V33.58H45.9665V51.92ZM79.9121 58.92V26.58H86.9821V51.92H99.0221V26.58H106.022V51.92H118.132V26.58H125.132V52.62H118.832V58.92H105.322V52.62H99.7221V58.92H79.9121ZM133.574 58.92V20.28H139.944V13.91H159.684V20.28H166.124V39.88H159.684V46.25H156.604V51.92H162.904V58.92H155.904V52.62H149.464V46.25H140.644V58.92H133.574ZM140.644 39.18H158.984V20.98H140.644V39.18ZM180.96 58.92V52.62H174.59V32.95H180.96V26.58H200.7V32.95H207.14V39.88H200V33.58H181.66V39.18H194.4V46.25H181.66V51.92H200V45.48H207.14V52.55H200.7V58.92H180.96ZM215.605 58.92V51.92H241.015V46.25H221.975V39.88H215.605V32.95H221.975V26.58H248.155V33.58H222.675V39.18H241.715V45.55H248.155V52.62H241.715V58.92H215.605ZM273.733 70.464C272.581 70.464 271.397 70.304 270.181 69.984C268.965 69.664 267.813 69.056 266.725 68.16C266.277 67.776 266.053 67.36 266.053 66.912C266.053 66.208 266.437 65.856 267.205 65.856C267.397 65.856 267.685 65.92 268.069 66.048C269.541 66.688 270.821 67.008 271.909 67.008C273.509 67.008 274.789 66.464 275.749 65.376C276.709 64.288 277.541 62.88 278.245 61.152C278.949 59.424 279.685 57.632 280.453 55.776C280.709 55.2 281.061 54.336 281.509 53.184C281.957 51.968 282.437 50.56 282.949 48.96C281.157 51.52 279.173 53.696 276.997 55.488C274.821 57.216 272.421 58.08 269.797 58.08C265.573 58.08 262.597 56.896 260.869 54.528C259.141 52.096 258.277 49.056 258.277 45.408C258.277 42.528 258.725 39.424 259.621 36.096C260.517 32.704 261.637 29.408 262.981 26.208C265.157 21.216 267.589 16.864 270.277 13.152C273.029 9.376 275.333 6.688 277.189 5.088C281.285 1.696 285.573 0 290.053 0C294.789 0 298.213 1.088 300.325 3.264C302.501 5.376 303.589 7.744 303.589 10.368C303.589 11.712 303.205 13.152 302.437 14.688C301.669 16.224 300.677 17.664 299.461 19.008C298.309 20.352 297.029 21.472 295.621 22.368C294.277 23.2 293.029 23.616 291.877 23.616H291.397C290.821 23.616 290.533 23.456 290.533 23.136C290.533 23.008 290.693 22.72 291.013 22.272C291.781 21.248 292.677 19.84 293.701 18.048C294.789 16.256 295.717 14.4 296.485 12.48C297.253 10.56 297.637 8.928 297.637 7.584C297.637 6.496 297.349 5.632 296.773 4.992C296.261 4.288 295.525 3.936 294.565 3.936C293.349 3.936 291.845 4.576 290.053 5.856C288.261 7.072 286.277 9.12 284.101 12C282.629 14.048 281.157 16.32 279.685 18.816C278.277 21.312 277.029 23.648 275.941 25.824C274.853 28 274.053 29.664 273.541 30.816C272.325 33.568 271.269 36.512 270.373 39.648C269.477 42.72 269.029 45.472 269.029 47.904C269.029 49.696 269.349 51.168 269.989 52.32C270.693 53.472 271.845 54.048 273.445 54.048C274.981 54.048 276.453 53.408 277.861 52.128C279.333 50.784 280.741 49.056 282.085 46.944C283.429 44.768 284.645 42.432 285.733 39.936L288.805 32.832C289.509 31.168 290.213 29.792 290.917 28.704C291.685 27.616 292.805 27.072 294.277 27.072H304.741C305.253 27.072 305.509 27.232 305.509 27.552C305.509 27.872 305.221 28.224 304.645 28.608C304.005 28.864 302.821 30.4 301.093 33.216C299.365 36.032 297.477 40.192 295.429 45.696C294.149 49.216 292.613 52.512 290.821 55.584C289.093 58.656 287.685 60.928 286.597 62.4C284.677 64.96 282.629 66.944 280.453 68.352C278.277 69.76 276.037 70.464 273.733 70.464ZM321.057 58.848C317.857 58.848 315.585 57.952 314.241 56.16C312.961 54.304 312.321 52.192 312.321 49.824C312.321 47.712 312.769 45.376 313.665 42.816C314.561 40.192 315.649 37.568 316.929 34.944C318.273 32.256 319.649 29.696 321.057 27.264C322.465 24.832 323.681 22.656 324.705 20.736C324.065 20.864 323.393 20.992 322.689 21.12C322.049 21.184 321.409 21.216 320.769 21.216C319.297 21.216 318.017 20.992 316.929 20.544C316.865 20.8 316.769 21.056 316.641 21.312C316.513 21.568 316.417 21.76 316.353 21.888C314.945 25.6 313.441 29.216 311.841 32.736C310.241 36.256 308.801 39.136 307.521 41.376C306.689 42.848 305.953 43.584 305.313 43.584C304.801 43.584 304.545 43.2 304.545 42.432C304.545 41.92 304.673 41.44 304.929 40.992C306.209 38.56 307.681 35.488 309.345 31.776C311.073 28.064 312.641 24.288 314.049 20.448C314.113 20.32 314.177 20.096 314.241 19.776C314.369 19.392 314.465 19.072 314.529 18.816C313.697 17.792 313.281 16.448 313.281 14.784C313.281 13.696 313.569 12.64 314.145 11.616C314.721 10.528 315.617 9.984 316.833 9.984C317.537 9.984 318.177 10.24 318.753 10.752C319.393 11.264 319.713 12.064 319.713 13.152C319.713 14.432 319.265 15.84 318.369 17.376C318.497 17.824 318.913 18.176 319.617 18.432C320.321 18.624 321.089 18.72 321.921 18.72C322.817 18.72 323.681 18.592 324.513 18.336C325.409 18.08 326.017 17.696 326.337 17.184C326.913 16.416 327.873 16.032 329.217 16.032C330.369 16.032 331.649 16.352 333.057 16.992C333.825 17.376 334.465 17.952 334.977 18.72C335.489 19.424 335.745 20.32 335.745 21.408C335.745 23.328 334.913 25.76 333.249 28.704C331.457 32.032 329.601 35.616 327.681 39.456C325.825 43.296 324.449 46.752 323.553 49.824C323.297 50.656 323.169 51.456 323.169 52.224C323.169 53.568 323.585 54.24 324.417 54.24C325.313 54.24 326.305 53.664 327.393 52.512C328.545 51.36 329.665 49.984 330.753 48.384C332.161 46.336 333.441 44.16 334.593 41.856C335.809 39.552 336.641 37.952 337.089 37.056C337.281 36.672 337.569 36.48 337.953 36.48C338.337 36.48 338.689 36.704 339.009 37.152C339.393 37.536 339.457 37.984 339.201 38.496C338.369 40.224 337.217 42.464 335.745 45.216C334.273 47.904 332.609 50.432 330.753 52.8C329.409 54.528 327.937 55.968 326.337 57.12C324.737 58.272 322.977 58.848 321.057 58.848ZM341.644 58.656C338.508 58.656 336.3 57.952 335.02 56.544C333.804 55.072 333.196 53.248 333.196 51.072C333.196 48.768 333.612 46.304 334.444 43.68C335.34 40.992 336.332 38.528 337.42 36.288C338.572 33.984 339.468 32.224 340.108 31.008C342.732 26.144 345.74 22.592 349.132 20.352C352.588 18.112 356.396 16.992 360.556 16.992C362.028 16.992 363.756 17.056 365.74 17.184C367.724 17.312 369.74 17.376 371.788 17.376C372.812 17.376 373.804 17.344 374.764 17.28C375.724 17.216 376.652 17.184 377.548 17.184H377.932C379.02 17.184 379.564 17.376 379.564 17.76C379.564 18.016 379.18 18.304 378.412 18.624C377.58 18.944 376.588 20.032 375.436 21.888C374.284 23.68 373.1 25.856 371.884 28.416C370.668 30.976 369.516 33.568 368.428 36.192C367.852 37.664 367.084 39.648 366.124 42.144C365.164 44.576 364.46 47.072 364.012 49.632C363.948 50.08 363.884 50.496 363.82 50.88C363.82 51.2 363.82 51.52 363.82 51.84C363.82 53.44 364.236 54.24 365.068 54.24C366.092 54.24 367.148 53.696 368.236 52.608C369.324 51.52 370.38 50.208 371.404 48.672C372.3 47.328 373.196 45.824 374.092 44.16C374.988 42.496 375.788 40.96 376.492 39.552C377.196 38.08 377.708 37.056 378.028 36.48C378.22 36.096 378.476 35.904 378.796 35.904C379.18 35.904 379.532 36.192 379.852 36.768C380.172 37.28 380.204 37.792 379.948 38.304C378.732 40.672 377.42 43.2 376.012 45.888C374.604 48.576 373.068 51.008 371.404 53.184C368.588 56.832 365.324 58.656 361.612 58.656C358.796 58.656 356.716 57.792 355.372 56.064C354.092 54.336 353.452 52.256 353.452 49.824C353.452 48.736 353.548 47.68 353.74 46.656C353.036 47.808 352.172 49.312 351.148 51.168C350.124 52.96 348.94 54.592 347.596 56.064C346.316 57.536 344.876 58.368 343.276 58.56C343.02 58.56 342.764 58.56 342.508 58.56C342.252 58.624 341.964 58.656 341.644 58.656ZM345.196 53.76C345.836 53.76 346.668 53.184 347.692 52.032C348.78 50.88 349.868 49.44 350.956 47.712C352.108 45.92 353.1 44.128 353.932 42.336C354.124 41.824 354.572 40.736 355.276 39.072C356.044 37.344 356.876 35.36 357.772 33.12C358.732 30.816 359.692 28.512 360.652 26.208C361.612 23.904 362.444 21.888 363.148 20.16C363.212 19.968 363.244 19.744 363.244 19.488C363.244 19.104 363.052 18.912 362.668 18.912C362.284 18.912 361.836 19.072 361.324 19.392C360.812 19.648 360.332 19.936 359.884 20.256C359.052 20.896 357.964 22.24 356.62 24.288C355.34 26.272 353.964 28.608 352.492 31.296C351.084 33.984 349.74 36.736 348.46 39.552C347.18 42.304 346.124 44.832 345.292 47.136C344.524 49.376 344.14 51.072 344.14 52.224C344.14 53.248 344.492 53.76 345.196 53.76ZM416.702 58.848C413.502 58.848 411.326 57.984 410.174 56.256C409.022 54.528 408.446 52.512 408.446 50.208C408.446 48.48 408.638 46.784 409.022 45.12C409.406 43.392 409.822 41.888 410.27 40.608C410.718 39.264 411.006 38.336 411.134 37.824C411.838 35.712 412.67 33.6 413.63 31.488C414.654 29.376 415.326 27.616 415.646 26.208C414.878 26.848 413.854 28.064 412.574 29.856C411.294 31.584 409.886 33.6 408.35 35.904C406.878 38.208 405.47 40.608 404.126 43.104C402.846 45.536 401.758 47.84 400.862 50.016C400.03 52.192 399.614 53.984 399.614 55.392C399.614 56.288 399.806 56.992 400.19 57.504C399.614 57.696 399.038 57.888 398.462 58.08C397.886 58.208 397.31 58.272 396.734 58.272C394.494 58.272 392.926 57.664 392.03 56.448C391.198 55.232 390.782 53.76 390.782 52.032C390.782 49.92 391.166 47.68 391.934 45.312C392.766 42.944 393.502 41.024 394.142 39.552C394.654 38.4 395.294 36.864 396.062 34.944C396.894 33.024 397.726 31.136 398.558 29.28C399.454 27.36 400.222 25.888 400.862 24.864C400.158 25.504 399.07 26.72 397.598 28.512C396.19 30.304 394.622 32.416 392.894 34.848C391.166 37.28 389.502 39.808 387.902 42.432C386.302 44.992 384.99 47.424 383.966 49.728C382.942 52.032 382.43 53.952 382.43 55.488C382.43 56.512 382.654 57.248 383.102 57.696C383.294 57.888 383.39 58.048 383.39 58.176C383.39 58.496 383.038 58.592 382.334 58.464C380.862 58.208 379.422 57.952 378.014 57.696C376.606 57.376 375.422 56.768 374.462 55.872C373.566 54.912 373.118 53.344 373.118 51.168C373.118 49.44 373.566 47.36 374.462 44.928C375.358 42.432 376.414 39.872 377.63 37.248C378.846 34.624 379.902 32.192 380.798 29.952C380.99 29.44 381.31 28.672 381.758 27.648C382.206 26.56 382.654 25.44 383.102 24.288C383.614 23.072 383.998 22.016 384.254 21.12C384.51 20.16 384.574 19.52 384.446 19.2C384.318 18.944 384.254 18.752 384.254 18.624C384.254 17.856 384.766 17.472 385.79 17.472C386.814 17.472 387.838 17.632 388.862 17.952C389.95 18.208 390.91 18.656 391.742 19.296C392.638 19.936 393.342 20.704 393.854 21.6C394.366 22.496 394.622 23.488 394.622 24.576C394.622 25.28 394.462 26.112 394.142 27.072C393.95 27.648 393.566 28.448 392.99 29.472C392.478 30.432 391.966 31.392 391.454 32.352C391.006 33.248 390.75 33.888 390.686 34.272C391.71 32.8 392.83 31.168 394.046 29.376C395.326 27.584 396.542 25.888 397.694 24.288C398.91 22.624 399.966 21.216 400.862 20.064C401.822 18.848 402.526 18.08 402.974 17.76C403.678 17.248 404.51 16.992 405.47 16.992C406.814 16.992 408.286 17.376 409.886 18.144C410.974 18.592 411.71 19.2 412.094 19.968C412.542 20.672 412.766 21.472 412.766 22.368C412.766 23.648 412.414 24.992 411.71 26.4C411.07 27.744 410.462 28.96 409.886 30.048C411.166 28.256 412.446 26.464 413.726 24.672C415.07 22.88 416.286 21.28 417.374 19.872C418.526 18.464 419.454 17.504 420.158 16.992C420.67 16.608 421.502 16.416 422.654 16.416C423.998 16.416 425.374 16.832 426.782 17.664C428.19 18.496 428.894 20 428.894 22.176C428.894 23.008 428.734 23.968 428.414 25.056C428.094 26.144 427.582 27.36 426.878 28.704C424.126 33.952 422.014 38.688 420.542 42.912C419.07 47.072 418.334 50.144 418.334 52.128C418.334 53.536 418.718 54.24 419.486 54.24C420.382 54.24 421.374 53.664 422.462 52.512C423.614 51.36 424.734 49.984 425.822 48.384C427.23 46.336 428.51 44.16 429.662 41.856C430.878 39.552 431.71 37.952 432.158 37.056C432.35 36.672 432.638 36.48 433.022 36.48C433.406 36.48 433.758 36.704 434.078 37.152C434.462 37.536 434.526 37.984 434.27 38.496C433.822 39.392 433.15 40.64 432.254 42.24C431.422 43.776 430.462 45.472 429.374 47.328C428.286 49.12 427.102 50.848 425.822 52.512C424.414 54.304 422.942 55.808 421.406 57.024C419.87 58.24 418.302 58.848 416.702 58.848Z" fill="white"/>
</svg>
