<svg xmlns="http://www.w3.org/2000/svg" viewBox="0 0 64 64">
  <rect width="64" height="64" rx="16" fill="#151c45" />
  <path d="M48,22 c0,14 -10,26 -24,26 c-3.3,0 -6,-2.7 -6,-6 c0,-1.6 0.6,-3.1 1.7,-4.1 C20.6,36.8 21.3,35.4 21.3,33.5 C21.3,30.4 18.8,28 15.6,28 l-2.6,0 c-3.3,0 -6,-2.7 -6,-6 c0,-10 12,-18 24,-18 C41,4 48,12 48,22 Z" fill="#cfd3ff" transform="translate(8,6)"/>
  
  <circle cx="28" cy="20" r="5" fill="#f43f5e" />
  <circle cx="44" cy="22" r="5" fill="#3b82f6" />
  <circle cx="38" cy="38" r="5" fill="#10b981" />
  <circle cx="22" cy="34" r="5" fill="#eab308" />
  <circle cx="24" cy="46" r="3" fill="#cfd3ff" />
</svg>
