<?xml version="1.0" encoding="UTF-8" ?>
<svg version="1.1" width="160" height="160" xmlns="http://www.w3.org/2000/svg" shape-rendering="crispEdges">
<rect x="30" y="0" width="100" height="20" fill="#FFFFFF" />
<rect x="20" y="10" width="10" height="30" fill="#FFFFFF" />
<rect x="130" y="10" width="10" height="30" fill="#FFFFFF" />
<rect x="10" y="20" width="10" height="120" fill="#FFFFFF" />
<rect x="30" y="20" width="10" height="10" fill="#FFFFFF" />
<rect x="120" y="20" width="10" height="10" fill="#FFFFFF" />
<rect x="140" y="20" width="10" height="120" fill="#FFFFFF" />
<rect x="0" y="30" width="10" height="100" fill="#FFFFFF" />
<rect x="150" y="30" width="10" height="100" fill="#FFFFFF" />
<rect x="110" y="40" width="10" height="10" fill="#FFFFFF" />
<rect x="70" y="50" width="20" height="10" fill="#FFFFFF" />
<rect x="60" y="60" width="10" height="10" fill="#FFFFFF" />
<rect x="90" y="60" width="10" height="10" fill="#FFFFFF" />
<rect x="50" y="70" width="10" height="20" fill="#FFFFFF" />
<rect x="100" y="70" width="10" height="20" fill="#FFFFFF" />
<rect x="60" y="90" width="10" height="10" fill="#FFFFFF" />
<rect x="90" y="90" width="10" height="10" fill="#FFFFFF" />
<rect x="70" y="100" width="20" height="10" fill="#FFFFFF" />
<rect x="20" y="120" width="10" height="30" fill="#FFFFFF" />
<rect x="130" y="120" width="10" height="30" fill="#FFFFFF" />
<rect x="30" y="130" width="10" height="30" fill="#FFFFFF" />
<rect x="120" y="130" width="10" height="30" fill="#FFFFFF" />
<rect x="40" y="140" width="80" height="20" fill="#FFFFFF" />
</svg>